<svg xmlns="http://www.w3.org/2000/svg" width="594.451" height="594.451" viewBox="0 0 594.451 594.451" style="enable-background:new 0 0 594.451 594.451" xml:space="preserve"><path d="M586.818 191.206a97.01 97.01 0 0 0 7.133-36.619c0-12.626-2.4-24.947-7.133-36.619-4.91-12.106-12.105-22.951-21.387-32.232-9.281-9.282-20.127-16.478-32.232-21.386a96.994 96.994 0 0 0-36.619-7.133c-12.625 0-24.945 2.399-36.617 7.133-12.105 4.909-22.951 12.104-32.232 21.386L211.305 302.16l-44.583-44.583c-9.282-9.282-20.127-16.477-32.233-21.387a96.99 96.99 0 0 0-36.619-7.133 96.99 96.99 0 0 0-36.618 7.133c-12.106 4.91-22.951 12.104-32.232 21.386-9.282 9.282-16.478 20.127-21.387 32.233C2.899 301.481.5 313.802.5 326.428c0 12.627 2.399 24.947 7.133 36.619 4.909 12.106 12.104 22.951 21.386 32.232l113.436 113.436c9.282 9.281 20.126 16.477 32.232 21.387 11.672 4.732 23.992 7.133 36.619 7.133s24.947-2.4 36.619-7.133c12.106-4.91 22.951-12.105 32.232-21.386l285.277-285.277c9.279-9.282 16.474-20.127 21.384-32.233zm-51.679 1.94L249.864 478.423c-10.648 10.647-24.603 15.971-38.559 15.971s-27.911-5.323-38.559-15.971L59.311 364.987c-21.295-21.296-21.295-55.822 0-77.118 10.648-10.647 24.604-15.971 38.559-15.971 13.956 0 27.911 5.324 38.559 15.971l64.057 64.058c2.988 2.987 6.903 4.481 10.819 4.481s7.831-1.494 10.819-4.481l235.897-235.898c10.648-10.648 24.604-15.972 38.559-15.972 13.957 0 27.912 5.324 38.561 15.972 21.295 21.295 21.295 55.822-.002 77.117z"/><path d="M211.306 537.734a97.516 97.516 0 0 1-36.807-7.169c-12.167-4.936-23.068-12.168-32.397-21.497L28.666 395.633c-9.329-9.328-16.562-20.229-21.496-32.398C2.412 351.504 0 339.12 0 326.428c0-12.691 2.412-25.075 7.169-36.806 4.935-12.169 12.167-23.07 21.497-32.399 9.329-9.328 20.229-16.56 32.398-21.496a97.496 97.496 0 0 1 36.806-7.169 97.5 97.5 0 0 1 36.807 7.169c12.168 4.935 23.069 12.167 32.398 21.497l44.23 44.229L427.377 85.382c9.327-9.328 20.228-16.56 32.398-21.496 11.73-4.757 24.113-7.169 36.805-7.169s25.076 2.412 36.807 7.169c12.17 4.935 23.07 12.167 32.398 21.496 9.328 9.329 16.561 20.229 21.496 32.398a97.49 97.49 0 0 1 7.17 36.807 97.508 97.508 0 0 1-7.169 36.807c-4.936 12.168-12.167 23.068-21.495 32.398L280.51 509.069c-9.329 9.328-20.229 16.56-32.397 21.495a97.497 97.497 0 0 1-36.807 7.17zM97.87 229.558a96.5 96.5 0 0 0-36.43 7.096c-12.044 4.885-22.833 12.043-32.067 21.276-9.234 9.234-16.393 20.023-21.277 32.068A96.493 96.493 0 0 0 1 326.428a96.511 96.511 0 0 0 7.096 36.432c4.884 12.044 12.042 22.833 21.276 32.066l113.436 113.436c9.235 9.233 20.023 16.393 32.066 21.277 11.614 4.708 23.871 7.096 36.431 7.096s24.817-2.388 36.431-7.096c12.044-4.886 22.833-12.044 32.066-21.276L565.08 223.085c9.232-9.235 16.391-20.024 21.275-32.067a96.517 96.517 0 0 0 7.096-36.431 96.503 96.503 0 0 0-7.097-36.431c-4.885-12.044-12.043-22.833-21.276-32.067s-20.021-16.392-32.066-21.276a96.503 96.503 0 0 0-36.432-7.096 96.505 96.505 0 0 0-36.43 7.096c-12.045 4.885-22.834 12.043-32.066 21.276L211.305 302.867l-44.937-44.937c-9.234-9.234-20.023-16.393-32.067-21.277a96.509 96.509 0 0 0-36.431-7.095zm113.435 265.336c-14.699 0-28.519-5.724-38.913-16.117L58.958 365.341c-21.456-21.456-21.456-56.369 0-77.825 10.395-10.394 24.214-16.118 38.913-16.118 14.699 0 28.519 5.724 38.913 16.118l64.057 64.058c2.796 2.796 6.513 4.335 10.465 4.335s7.669-1.539 10.465-4.335l235.897-235.898c10.395-10.394 24.214-16.118 38.912-16.118 14.699 0 28.52 5.724 38.914 16.118 10.394 10.394 16.118 24.213 16.117 38.912 0 14.699-5.725 28.519-16.119 38.912L250.218 478.776c-10.394 10.394-24.214 16.118-38.913 16.118zM97.87 272.398c-14.432 0-28 5.62-38.206 15.825-21.065 21.066-21.065 55.345 0 76.411L173.1 478.069c10.205 10.204 23.773 15.824 38.206 15.824 14.432 0 28-5.62 38.206-15.824l285.274-285.277c10.205-10.205 15.826-23.773 15.826-38.205.001-14.432-5.619-28-15.824-38.205-10.206-10.205-23.774-15.825-38.207-15.825-14.432 0-27.999 5.62-38.205 15.825L222.478 352.28c-2.985 2.984-6.953 4.628-11.172 4.628s-8.188-1.644-11.172-4.628l-64.057-64.058c-10.206-10.204-23.775-15.824-38.207-15.824z"/></svg>
