<svg version="1.0" xmlns="http://www.w3.org/2000/svg" width="682.667" height="682.667" viewBox="0 0 512 512"><path d="M245.5 87.6c-18 3-34 11.5-46.1 24.8-14 15.2-20.3 32.8-20.4 56.3V179h-31.7c-29.8 0-32 .1-35 2-1.8 1.1-3.5 3-3.8 4.2-.3 1.3-.4 44.6-.3 96.3l.3 94 2.8 6.9c5.5 13.8 15.3 24.6 28.2 31.1 13.1 6.6 10.7 6.5 116.5 6.5 105.7 0 103.3.1 116.5-6.5 12.7-6.3 22.7-17.3 28.2-31.1l2.8-6.9.3-94c.1-51.7 0-95-.3-96.3-.3-1.2-2-3.1-3.8-4.2-3-1.9-5.2-2-34.9-2H333v-9.6c0-11.8-1.4-21.4-4.6-30.7-8-23.5-28.5-42.5-52.9-49.1-6.1-1.7-24.5-2.8-30-2zm25 21.9c14.7 3.9 29.3 15.9 35.8 29.5 4.5 9.7 5.7 15.6 5.7 29v11H200v-11c0-13.4 1.2-19.3 5.7-29 6.4-13.4 21-25.5 35.4-29.4 7.2-2 22-2 29.4-.1zm-91.5 104c0 18.1 1.7 21.5 10.7 21.5 4.3 0 7.8-2.5 9.4-6.7.5-1.3.9-8.3.9-15.4V200h112v12.9c0 7 .5 14.2 1.1 15.9 1.3 3.9 4.8 6.2 9.4 6.2 8.7 0 10.5-3.6 10.5-21.5V200h51v83.4c0 80.7-.1 83.6-2 89.7-3.6 11.4-11.5 19.7-22.6 23.9-5.4 2-7.4 2-103.4 2-96.6 0-98 0-103.5-2.1-11-4.1-19.6-13.4-22.9-24.8-1.4-4.8-1.6-15.6-1.6-88.8V200h51v13.5z"/></svg>