<svg width="667" height="667" viewBox="0 0 667 667" fill="none" xmlns="http://www.w3.org/2000/svg">
<path d="M439.317 505.082C438.069 508.193 436.171 511.002 433.749 513.319C431.328 515.636 428.438 517.409 425.276 518.519C422.113 519.628 418.749 520.049 415.41 519.752C412.072 519.456 408.835 518.449 405.917 516.799L315.428 446.486L257.351 500.067C256.003 501.062 254.427 501.703 252.767 501.93C251.107 502.157 249.416 501.962 247.851 501.365L258.984 401.749L259.34 402.032L259.568 400.065C259.568 400.065 422.401 251.815 429.035 245.499C435.75 239.199 433.535 237.832 433.535 237.832C433.917 230.148 421.484 237.832 421.484 237.832L205.733 376.633L115.884 346.033C115.884 346.033 102.084 341.083 100.784 330.2C99.4171 319.4 116.333 313.533 116.333 313.533L473.567 171.616C473.567 171.616 502.933 158.532 502.933 180.2L439.317 505.082Z" fill="white"/>
</svg>
