<svg version="1.0" xmlns="http://www.w3.org/2000/svg" width="682.667" height="682.667" viewBox="0 0 512 512"><path d="M95.4 107c-6.5 2.6-8.3 10.9-3.5 16.2l2.9 3.3 51.9.3c28.5.2 53.3 0 55.2-.3 7.9-1.5 10.8-10.5 5.2-16.7l-2.9-3.3-53.4-.2c-29.3-.1-54.3.2-55.4.7zm153.5 15.9c-2.2 2.2-2.9 3.9-2.9 6.8 0 8.5 4.3 10.6 21 10.1 11.9-.3 12.2-.4 14.6-3.1 3.5-4.1 3.3-9.9-.5-13.8l-2.9-2.9h-26.4l-2.9 2.9zm56 0c-4.9 4.9-3.5 12.8 2.8 16 1.5.8 15.8 1.1 46.3 1.1h44.2l2.9-2.9c4.1-4.1 4.1-10.1 0-14.2l-2.9-2.9h-90.4l-2.9 2.9zm-164.3 45.6c-4.2 2.2-5.3 4.1-7.2 12.2-1.5 6-1.5 7.6-.4 10.3 3.3 8 15.9 7.7 19-.6l1-2.4h102.5c56.4 0 102.5.3 102.5.7 0 .5-10.1 37.9-22.4 83.3l-22.3 82.5-63.1.3-63.2.2-1.9-3.9c-5.1-10-18.4-15.6-30.8-13.1-9 1.9-15.8 5.4-22.2 11.5l-5.8 5.5h-9.1c-6.7 0-9.2-.3-9.2-1.3 0-.6 3.1-12.5 6.9-26.2l6.8-25 22.9-.5c26-.6 27.4-.9 29.5-7.9 1-3.4.9-4.4-.8-7.3-1-1.8-3-3.9-4.4-4.5-1.8-1-14.4-1.3-50.9-1.3-46.4 0-48.6.1-51.7 2-5.4 3.3-6.2 10.8-1.7 15.4 3.2 3.1 6.1 3.6 22 3.6 8.6 0 13.4.4 13.4 1s-3.6 14.4-8 30.7c-4.4 16.4-8 31-8 32.6 0 2 1.1 4 3.4 6.3l3.4 3.4h27.9l.6 5.4c1.6 15.8 16.2 26.3 32.9 23.6 13.5-2.1 26.1-11.2 32.3-23.2l3-5.8h150.2l.6 5.4c1.6 15.8 16.2 26.3 32.9 23.6 13.6-2.1 26.5-11.5 32.2-23.3l2.8-5.7h7.7c18.2 0 31.7-7.8 38.6-22.2 1.4-2.9 6.1-18.8 10.6-35.3 6.9-25.8 8-30.8 7.6-35.8-.6-7.3-4.2-13.4-10.4-18-9.3-6.8-13.1-14.2-14.4-28.1-1.2-12.3-2.9-17.2-7.6-22.1-6.9-7.1-8.6-7.5-37.5-7.5-20.1 0-25.8-.3-25.8-1.3 0-.7 1.6-7 3.5-14 4-14.6 4-14.8 1.9-18.8-3.1-6.2 2.5-5.9-122.6-5.9-100.2 0-114.7.2-117.2 1.5zm282.7 59.9c.9.9 1.7 4.7 2.1 9.8.4 4.6 1.3 10.6 2 13.3 2.9 11 11 23.1 19 28.6 2.7 1.8 3.6 3.1 3.6 5.2 0 1.6-3.4 15.5-7.6 31-8.1 30.3-9.5 33.4-16.5 36.9-2.4 1.3-5.8 1.8-11.6 1.8H406l-1.9-3.9c-5.4-10.5-18.9-15.8-32.4-12.7-9 2.1-14 4.8-20.7 11.2-5.4 5.1-6 5.4-10.8 5.4-3.2 0-5.2-.4-5.2-1.1 0-1 28.1-106 32.6-121.7l1.5-5.2h26.4c21.5 0 26.6.3 27.8 1.4zM166 360c7.3 7.3-6 25-18.7 25-3.9 0-8.3-3.7-8.3-7 0-12.1 19.7-25.3 27-18zm219 0c7.3 7.3-6 25-18.7 25-3.9 0-8.3-3.7-8.3-7 0-12.1 19.7-25.3 27-18z"/><path d="M44.7 220.4c-4.8 4.4-4.8 10.8 0 15.2l2.6 2.4h70.4l-1.5 6.5c-1.1 4.5-1.3 7.3-.6 9.2 1.3 3.8 5.8 6.7 10 6.6 6.2-.2 8.8-4 12.4-18.1l1.1-4.2H172c35.4 0 37-.2 39.6-5.1 2.7-5.2.8-11.5-4.1-13.7-1.9-.9-22.4-1.2-81.4-1.2H47.3l-2.6 2.4zm194.9 8.8c-5.5 5-28.5 33.3-28.9 35.7-.7 3.4 1.5 8.4 4.4 10.5 1.8 1.2 4.8 1.6 13.2 1.6h10.9l-8.3 9c-11.7 12.6-14.9 16.9-14.9 19.7 0 3.3 2.6 8 5.1 9.4 2.9 1.5 8.4 1.4 10.7-.3 3.8-2.7 38.5-41.4 39.8-44.3 1.6-3.9.8-7.8-2.3-10.7-2.2-2.1-3.6-2.3-14.4-2.8l-12-.5 6.6-7.9c5.6-6.7 6.5-8.4 6.5-11.8 0-8.4-10.2-13.1-16.4-7.6z"/></svg>