<?xml version="1.0" standalone="no"?>
<!DOCTYPE svg PUBLIC "-//W3C//DTD SVG 20010904//EN"
 "http://www.w3.org/TR/2001/REC-SVG-20010904/DTD/svg10.dtd">
<svg version="1.0" xmlns="http://www.w3.org/2000/svg"
 width="1614.000000pt" height="322.000000pt" viewBox="0 0 1614.000000 322.000000"
 preserveAspectRatio="xMidYMid meet">

<g transform="translate(0.000000,322.000000) scale(0.100000,-0.100000)"
fill="#000000" stroke="none">
<path d="M975 2529 c-251 -33 -417 -153 -477 -343 -15 -48 -19 -82 -16 -161 5
-119 24 -170 93 -244 92 -98 202 -148 486 -221 242 -62 340 -96 407 -140 106
-71 149 -156 140 -278 -11 -152 -116 -260 -301 -309 -94 -26 -346 -23 -449 5
-120 33 -217 77 -296 137 -40 30 -75 55 -77 55 -2 0 -16 -20 -31 -45 -31 -54
-30 -55 62 -121 173 -123 408 -181 671 -163 257 18 429 114 512 288 35 74 36
79 36 191 0 95 -4 123 -21 161 -44 96 -154 188 -284 238 -43 17 -170 55 -282
85 -309 84 -367 107 -445 179 -71 65 -88 106 -88 212 0 78 4 97 28 147 72 146
219 213 472 212 171 0 263 -21 409 -93 l98 -49 20 45 c11 24 17 51 14 58 -9
24 -188 104 -291 130 -112 29 -281 39 -390 24z"/>
<path d="M9852 2530 c-245 -35 -466 -156 -607 -333 -97 -121 -157 -251 -186
-397 -18 -93 -16 -310 4 -392 87 -359 352 -617 707 -690 79 -17 122 -19 255
-15 106 3 182 11 225 22 87 23 238 95 314 149 176 126 306 332 351 555 24 115
16 334 -14 439 -98 338 -355 573 -706 648 -87 19 -259 26 -343 14z m263 -126
c424 -45 735 -456 676 -896 -35 -266 -190 -487 -421 -603 -129 -64 -226 -86
-387 -86 -392 0 -702 240 -788 611 -22 96 -20 285 5 387 77 321 355 559 692
592 82 8 105 8 223 -5z"/>
<path d="M2762 2463 l3 -58 585 0 585 0 3 58 3 57 -591 0 -591 0 3 -57z"/>
<path d="M5070 1615 l0 -905 590 0 590 0 0 60 0 60 -525 0 -525 0 0 845 0 845
-65 0 -65 0 0 -905z"/>
<path d="M7160 1615 l0 -905 590 0 590 0 0 60 0 60 -525 0 -525 0 0 845 0 845
-65 0 -65 0 0 -905z"/>
<path d="M11950 1938 c0 -702 4 -742 97 -920 70 -134 222 -252 376 -292 154
-40 336 -41 492 -1 225 57 392 232 457 476 21 81 22 103 25 702 l4 617 -65 0
-65 0 -4 -607 c-4 -676 -3 -665 -74 -813 -66 -137 -203 -242 -354 -270 -67
-13 -262 -13 -330 0 -167 32 -312 153 -375 313 -51 130 -54 174 -54 798 l0
579 -65 0 -65 0 0 -582z"/>
<path d="M14250 2460 l0 -60 325 0 325 0 0 -845 0 -845 65 0 65 0 0 845 0 845
328 2 327 3 3 58 3 57 -721 0 -720 0 0 -60z"/>
<path d="M2767 1683 c-4 -3 -7 -30 -7 -60 l0 -53 590 0 591 0 -3 58 -3 57
-581 3 c-319 1 -584 -1 -587 -5z"/>
<path d="M2767 823 c-4 -3 -7 -30 -7 -60 l0 -53 590 0 591 0 -3 58 -3 57 -581
3 c-319 1 -584 -1 -587 -5z"/>
</g>
</svg>
